<svg id="SvgjsSvg1000" xmlns="http://www.w3.org/2000/svg" version="1.1" xmlns:xlink="http://www.w3.org/1999/xlink" xmlns:svgjs="http://svgjs.com/svgjs" width="33" height="24"><defs id="SvgjsDefs1001"></defs><path id="SvgjsPath1007" d="M555.95 1505.51C555.95 1506.05 555.504 1506.5 554.955 1506.5L547.543 1506.5C548.099 1506.37 548.515 1505.88 548.515 1505.29C548.515 1505.29 548.515 1500.79 545.2139999999999 1499.1499999999999C543.8019999999999 1498.4499999999998 543.709 1498.58 543.0079999999999 1498.4199999999998L543.0279999999999 1496.4699999999998C543.0279999999999 1496.4699999999998 542.257 1495.8799999999999 542.0169999999999 1494.0399999999997C541.535 1494.1699999999998 541.376 1493.4699999999998 541.347 1493.0199999999998C541.321 1492.5899999999997 541.068 1491.2399999999998 541.6569999999999 1491.3599999999997C541.536 1490.4599999999996 541.4499999999999 1489.6499999999996 541.492 1489.2199999999996C541.64 1487.6999999999996 543.102 1486.1199999999997 545.353 1486.0099999999995C548.002 1486.1199999999994 549.0509999999999 1487.6999999999996 549.198 1489.2099999999996C549.241 1489.6499999999996 549.1469999999999 1490.4599999999996 549.026 1491.3599999999997C549.615 1491.2399999999998 549.3589999999999 1492.5899999999997 549.3299999999999 1493.0199999999998C549.305 1493.4699999999998 549.1419999999999 1494.1699999999998 548.661 1494.0299999999997C548.42 1495.8699999999997 547.649 1496.4599999999998 547.649 1496.4599999999998L547.667 1498.3999999999999C547.667 1498.3999999999999 548.1550000000001 1498.6799999999998 550.2130000000001 1499.53C552.2710000000001 1500.3799999999999 551.6250000000001 1499.75 553.301 1500.58C555.95 1501.8899999999999 555.95 1505.5 555.95 1505.5ZM538.225 1497.6L538.206 1495.4599999999998C538.206 1495.4599999999998 539.053 1494.8199999999997 539.317 1492.7899999999997C539.846 1492.9499999999998 540.025 1492.1799999999998 540.053 1491.6799999999998C540.085 1491.2099999999998 540.366 1489.7299999999998 539.719 1489.86C539.8520000000001 1488.87 539.955 1487.9699999999998 539.908 1487.5C539.7470000000001 1485.84 538.593 1484.1 535.682 1483.98C533.207 1484.1 531.6 1485.84 531.438 1487.5C531.391 1487.98 531.486 1488.87 531.6179999999999 1489.86C530.972 1489.7299999999998 531.2499999999999 1491.2099999999998 531.2789999999999 1491.6899999999998C531.3099999999998 1492.1799999999998 531.4849999999999 1492.9499999999998 532.0149999999999 1492.7999999999997C532.2779999999999 1494.8199999999997 533.1249999999999 1495.4699999999998 533.1249999999999 1495.4699999999998L533.1039999999999 1497.62C533.1039999999999 1497.62 532.568 1497.9499999999998 530.3059999999999 1498.8799999999999C528.044 1499.82 528.7539999999999 1499.08 526.911 1499.9899999999998C523.9989999999999 1501.4299999999998 523.9989999999999 1505.4099999999999 523.9989999999999 1505.4099999999999L523.9999999999999 1505.4099999999999C523.9999999999999 1506.0099999999998 524.4889999999999 1506.4999999999998 525.0929999999998 1506.4999999999998L546.2359999999999 1506.4999999999998C546.8399999999999 1506.4999999999998 547.3289999999998 1506.0099999999998 547.3289999999998 1505.4099999999999L547.3299999999998 1505.4099999999999C547.3299999999998 1505.4099999999999 547.3299999999998 1501.4299999999998 544.4179999999998 1499.9899999999998C542.5749999999998 1499.0799999999997 543.2849999999997 1499.7799999999997 541.0229999999998 1498.8399999999997C538.7609999999999 1497.9099999999996 538.2249999999998 1497.5999999999997 538.2249999999998 1497.5999999999997Z " fill="#ffffff" transform="matrix(1,0,0,1,-523,-1483)"></path></svg>