<svg id="SvgjsSvg1008" xmlns="http://www.w3.org/2000/svg" version="1.1" xmlns:xlink="http://www.w3.org/1999/xlink" xmlns:svgjs="http://svgjs.com/svgjs" width="18" height="18"><defs id="SvgjsDefs1009"></defs><path id="SvgjsPath1010" d="M1561.8 52.1499C1561.8 53.0612 1561.06 53.7997 1560.1499999999999 53.7997C1559.6899999999998 53.7997 1559.28 53.615 1558.9799999999998 53.3164L1554.1499999999999 48.4806C1553.1699999999998 49.0612 1552.0199999999998 49.3997 1550.8 49.3997C1547.1499999999999 49.3997 1544.2 46.445100000000004 1544.2 42.7997C1544.2 39.1549 1547.15 36.1997 1550.8 36.1997C1554.45 36.1997 1557.3999999999999 39.1549 1557.3999999999999 42.7997C1557.3999999999999 44.0234 1557.06 45.1648 1556.4799999999998 46.1471L1561.3199999999997 50.982800000000005C1561.6199999999997 51.2815 1561.7999999999997 51.693900000000006 1561.7999999999997 52.1499ZM1550.8 37.8495C1548.07 37.8495 1545.85 40.065599999999996 1545.85 42.7997C1545.85 45.5338 1548.07 47.749900000000004 1550.8 47.749900000000004C1553.53 47.749900000000004 1555.75 45.53380000000001 1555.75 42.7997C1555.75 40.0656 1553.53 37.8495 1550.8 37.8495Z " fill="#ffffff" transform="matrix(1,0,0,1,-1544,-36)"></path></svg>