<svg id="SvgjsSvg1008" xmlns="http://www.w3.org/2000/svg" version="1.1" xmlns:xlink="http://www.w3.org/1999/xlink" xmlns:svgjs="http://svgjs.com/svgjs" width="30" height="30"><defs id="SvgjsDefs1009"></defs><path id="SvgjsPath1010" d="M735 6994C735 6994.65 734.581 6995.2 734 6995.41L734 6997.09C734.581 6997.3 735 6997.85 735 6998.5C735 6999.33 734.328 7000 733.5 7000C732.848 7000 732.299 6999.58 732.092 6999L730.408 6999C730.201 6999.58 729.652 7000 729 7000C728.348 7000 727.798 6999.58 727.592 6999L725.908 6999C725.701 6999.58 725.152 7000 724.5 7000C723.848 7000 723.298 6999.58 723.092 6999L721.408 6999C721.202 6999.58 720.652 7000 720 7000C719.348 7000 718.798 6999.58 718.592 6999L716.908 6999C716.701 6999.58 716.152 7000 715.5 7000C714.848 7000 714.298 6999.58 714.092 6999L712.408 6999C712.202 6999.58 711.652 7000 711 7000C710.348 7000 709.798 6999.58 709.592 6999L707.908 6999C707.701 6999.58 707.152 7000 706.5 7000C705.672 7000 705 6999.33 705 6998.5C705 6997.85 705.419 6997.3 706 6997.09L706 6995.41C705.419 6995.2 705 6994.65 705 6994C705 6993.35 705.419 6992.8 706 6992.59L706 6990.91C705.419 6990.7 705 6990.15 705 6989.5C705 6988.85 705.419 6988.3 706 6988.09L706 6986.41C705.419 6986.2 705 6985.65 705 6985C705 6984.35 705.419 6983.8 706 6983.59L706 6981.91C705.419 6981.7 705 6981.15 705 6980.5C705 6979.85 705.419 6979.3 706 6979.09L706 6977.41C705.419 6977.2 705 6976.65 705 6976C705 6975.35 705.419 6974.8 706 6974.59L706 6972.91C705.419 6972.7 705 6972.15 705 6971.5C705 6970.67 705.672 6970 706.5 6970C707.152 6970 707.701 6970.42 707.908 6971L709.592 6971C709.798 6970.42 710.348 6970 711 6970C711.652 6970 712.202 6970.42 712.408 6971L714.092 6971C714.298 6970.42 714.848 6970 715.5 6970C716.152 6970 716.701 6970.42 716.908 6971L718.592 6971C718.798 6970.42 719.348 6970 720 6970C720.652 6970 721.202 6970.42 721.408 6971L723.092 6971C723.298 6970.42 723.848 6970 724.5 6970C725.152 6970 725.701 6970.42 725.908 6971L727.592 6971C727.798 6970.42 728.348 6970 729 6970C729.652 6970 730.201 6970.42 730.408 6971L732.092 6971C732.299 6970.42 732.848 6970 733.5 6970C734.328 6970 735 6970.67 735 6971.5C735 6972.15 734.581 6972.7 734 6972.91L734 6974.59C734.581 6974.8 735 6975.35 735 6976C735 6976.65 734.581 6977.2 734 6977.41L734 6979.09C734.581 6979.3 735 6979.85 735 6980.5C735 6981.15 734.581 6981.7 734 6981.91L734 6983.59C734.581 6983.8 735 6984.35 735 6985C735 6985.65 734.581 6986.2 734 6986.41L734 6988.09C734.581 6988.3 735 6988.85 735 6989.5C735 6990.15 734.581 6990.7 734 6990.91L734 6992.59C734.581 6992.8 735 6993.35 735 6994ZM731 6974L709 6974L709 6996L731 6996ZM718 6990L725 6981.5L729.5 6988.5L729.5 6994.5L710.5 6994.5L716.5 6988.5ZM718 6980C718 6978.34 716.657 6977 715 6977C713.343 6977 712 6978.34 712 6980C712 6981.66 713.343 6983 715 6983C716.657 6983 718 6981.66 718 6980Z " fill="#ffffff" transform="matrix(1,0,0,1,-705,-6970)"></path></svg>