<svg id="SvgjsSvg1089" xmlns="http://www.w3.org/2000/svg" version="1.1" xmlns:xlink="http://www.w3.org/1999/xlink" xmlns:svgjs="http://svgjs.com/svgjs" width="17" height="15"><defs id="SvgjsDefs1090"></defs><path id="SvgjsPath1091" d="M437.416 9121.36C436.843 9121.36 436.282 9121.19 435.74 9121.11C433.54900000000004 9123.890000000001 430.093 9123.34 430.093 9123.34C432.534 9122.19 432.48400000000004 9120.27 432.05 9120.02C430.134 9118.890000000001 428.982 9117.18 428.982 9115.26C428.982 9111.86 432.709 9109.12 437.41600000000005 9109.12C442.1240000000001 9109.12 444.99300000000005 9111.86 444.99300000000005 9115.26C444.99300000000005 9118.65 442.124 9121.36 437.41600000000005 9121.36ZM433.242 9113.88C432.41400000000004 9113.88 431.742 9114.55 431.742 9115.369999999999C431.742 9116.199999999999 432.41400000000004 9116.869999999999 433.242 9116.869999999999C434.071 9116.869999999999 434.742 9116.199999999999 434.742 9115.369999999999C434.742 9114.55 434.071 9113.88 433.242 9113.88ZM436.992 9113.88C436.16400000000004 9113.88 435.492 9114.55 435.492 9115.369999999999C435.492 9116.199999999999 436.16400000000004 9116.869999999999 436.992 9116.869999999999C437.821 9116.869999999999 438.492 9116.199999999999 438.492 9115.369999999999C438.492 9114.55 437.821 9113.88 436.992 9113.88ZM440.742 9113.88C439.91400000000004 9113.88 439.242 9114.55 439.242 9115.369999999999C439.242 9116.199999999999 439.91400000000004 9116.869999999999 440.742 9116.869999999999C441.571 9116.869999999999 442.242 9116.199999999999 442.242 9115.369999999999C442.242 9114.55 441.571 9113.88 440.742 9113.88Z " fill="#95e1d3" transform="matrix(1,0,0,1,-428,-9109)"></path></svg>