<svg id="SvgjsSvg1086" xmlns="http://www.w3.org/2000/svg" version="1.1" xmlns:xlink="http://www.w3.org/1999/xlink" xmlns:svgjs="http://svgjs.com/svgjs" width="20" height="12"><defs id="SvgjsDefs1087"></defs><path id="SvgjsPath1088" d="M379.71 9115.78C379.709 9115.78 379.709 9115.79 379.70799999999997 9115.800000000001L379.707 9115.810000000001C379.707 9115.820000000002 379.705 9115.820000000002 379.705 9115.830000000002C379.704 9115.840000000002 379.703 9115.840000000002 379.702 9115.850000000002C379.678 9116.010000000002 379.60699999999997 9116.150000000001 379.499 9116.260000000002C379.295 9116.510000000002 379.072 9116.740000000002 378.848 9116.970000000001C377.636 9118.2 376.24600000000004 9119.300000000001 374.725 9120.090000000002C373.752 9120.600000000002 372.713 9121.010000000002 371.63500000000005 9121.210000000003C370.45000000000005 9121.430000000002 369.26400000000007 9121.410000000003 368.08500000000004 9121.160000000003C366.045 9120.710000000003 364.19800000000004 9119.610000000004 362.58200000000005 9118.300000000003C361.83200000000005 9117.680000000002 361.09400000000005 9117.020000000002 360.47400000000005 9116.260000000002C360.20200000000006 9115.930000000002 360.20200000000006 9115.540000000003 360.47400000000005 9115.210000000003C360.677 9114.970000000003 360.90000000000003 9114.740000000003 361.12500000000006 9114.510000000002C362.33600000000007 9113.280000000002 363.72600000000006 9112.180000000002 365.24800000000005 9111.390000000001C366.22 9110.880000000001 367.25900000000007 9110.470000000001 368.33700000000005 9110.27C369.52200000000005 9110.050000000001 370.708 9110.060000000001 371.88700000000006 9110.32C373.9270000000001 9110.76 375.77400000000006 9111.869999999999 377.39000000000004 9113.18C378.14000000000004 9113.79 378.87800000000004 9114.460000000001 379.49800000000005 9115.210000000001C379.60600000000005 9115.330000000002 379.677 9115.470000000001 379.701 9115.62C379.701 9115.630000000001 379.701 9115.630000000001 379.702 9115.630000000001C379.703 9115.630000000001 379.704 9115.640000000001 379.704 9115.650000000001C379.705 9115.650000000001 379.706 9115.660000000002 379.707 9115.660000000002C379.707 9115.670000000002 379.707 9115.670000000002 379.70799999999997 9115.680000000002C379.70799999999997 9115.690000000002 379.70899999999995 9115.690000000002 379.70899999999995 9115.700000000003C379.7099999999999 9115.710000000003 379.71099999999996 9115.730000000003 379.71099999999996 9115.740000000003C379.71099999999996 9115.750000000004 379.71 9115.760000000004 379.71 9115.780000000004ZM369.99 9111.94C367.97700000000003 9111.94 366.345 9113.57 366.345 9115.59C366.345 9117.6 367.97700000000003 9119.23 369.99 9119.23C372.003 9119.23 373.636 9117.6 373.636 9115.59C373.636 9113.57 372.00300000000004 9111.94 369.99 9111.94ZM371.813 9115.59C371.813 9114.58 370.997 9113.76 369.99 9113.76C368.98400000000004 9113.76 368.168 9114.58 368.168 9115.59C368.168 9116.59 368.984 9117.41 369.99 9117.41C370.997 9117.41 371.813 9116.59 371.813 9115.59Z " fill="#95e1d3" transform="matrix(1,0,0,1,-360,-9110)"></path></svg>