<svg id="SvgjsSvg1077" xmlns="http://www.w3.org/2000/svg" version="1.1" xmlns:xlink="http://www.w3.org/1999/xlink" xmlns:svgjs="http://svgjs.com/svgjs" width="16" height="17"><defs id="SvgjsDefs1078"></defs><path id="SvgjsPath1079" d="M638.837 9782.4C638.733 9781.89 638.575 9781.38 638.371 9780.9C638.1709999999999 9780.43 637.922 9779.97 637.6329999999999 9779.539999999999C637.347 9779.119999999999 637.0189999999999 9778.72 636.6569999999999 9778.359999999999C636.295 9777.999999999998 635.8969999999999 9777.669999999998 635.473 9777.38C635.0459999999999 9777.089999999998 634.588 9776.839999999998 634.1139999999999 9776.64C633.631 9776.439999999999 633.1249999999999 9776.279999999999 632.6109999999999 9776.18C632.0839999999998 9776.07 631.5419999999999 9776.01 630.9999999999999 9776.01C630.4579999999999 9776.01 629.9159999999999 9776.07 629.3889999999999 9776.18C628.8749999999999 9776.28 628.3689999999999 9776.44 627.8849999999999 9776.64C627.4109999999998 9776.84 626.9539999999998 9777.09 626.5259999999998 9777.38C626.1029999999998 9777.67 625.7039999999998 9778 625.3429999999998 9778.359999999999C624.9809999999999 9778.72 624.6529999999998 9779.119999999999 624.3669999999998 9779.539999999999C624.0779999999999 9779.97 623.8289999999998 9780.429999999998 623.6289999999998 9780.9C623.4239999999998 9781.38 623.2669999999998 9781.89 623.1619999999998 9782.4C623.0539999999999 9782.93 622.9999999999998 9783.47 622.9999999999998 9784.01C622.9999999999998 9784.56 623.0539999999997 9785.1 623.1619999999998 9785.630000000001C623.2669999999998 9786.140000000001 623.4239999999998 9786.650000000001 623.6289999999998 9787.130000000001C623.8289999999998 9787.6 624.0779999999997 9788.060000000001 624.3669999999998 9788.490000000002C624.6529999999998 9788.910000000002 624.9809999999999 9789.310000000001 625.3429999999998 9789.670000000002C625.7039999999998 9790.030000000002 626.1029999999998 9790.360000000002 626.5259999999998 9790.650000000001C626.9539999999998 9790.940000000002 627.4109999999998 9791.190000000002 627.8849999999999 9791.390000000001C628.3689999999999 9791.590000000002 628.8749999999999 9791.750000000002 629.3889999999999 9791.85C629.9159999999999 9791.960000000001 630.4579999999999 9792.02 630.9999999999999 9792.02C631.5419999999999 9792.02 632.0839999999998 9791.960000000001 632.6109999999999 9791.85C633.1249999999999 9791.75 633.6309999999999 9791.59 634.1139999999999 9791.390000000001C634.588 9791.19 635.0459999999999 9790.94 635.473 9790.650000000001C635.8969999999999 9790.36 636.295 9790.03 636.6569999999999 9789.670000000002C637.0189999999999 9789.310000000001 637.347 9788.910000000002 637.6329999999999 9788.490000000002C637.9219999999999 9788.060000000001 638.1709999999999 9787.600000000002 638.371 9787.130000000001C638.5749999999999 9786.650000000001 638.733 9786.140000000001 638.837 9785.630000000001C638.946 9785.1 639 9784.560000000001 639 9784.01C639 9783.47 638.946 9782.93 638.837 9782.4ZM624.168 9784.01C624.168 9783.94 624.171 9783.87 624.173 9783.800000000001C624.294 9783.800000000001 627.67 9783.880000000001 631.188 9782.830000000002C631.384 9783.210000000001 631.571 9783.600000000002 631.742 9783.990000000002C631.6519999999999 9784.010000000002 631.562 9784.04 631.473 9784.070000000002C627.8292899999999 9785.246030000002 625.96017 9788.502320000001 625.9167699999999 9788.578640000002C624.8294999999999 9787.368800000002 624.1679999999999 9785.76934 624.1679999999999 9784.010000000002ZM631 9790.85C629.346 9790.85 627.83 9790.26 626.648 9789.28C626.738 9789.35 626.801 9789.400000000001 626.801 9789.400000000001C626.801 9789.400000000001 628.111 9786.54 632.163 9785.130000000001C632.178 9785.130000000001 632.193 9785.12 632.208 9785.12C633.169 9787.62 633.5659999999999 9789.710000000001 633.6669999999999 9790.310000000001C632.848 9790.650000000001 631.9459999999999 9790.850000000002 630.9999999999999 9790.850000000002ZM628.085 9777.84C628.176 9777.960000000001 629.4390000000001 9779.67 630.6220000000001 9781.77C627.3410000000001 9782.640000000001 624.494 9782.61 624.3140000000001 9782.61C624.758 9780.49 626.1790000000001 9778.74 628.085 9777.84ZM635.513 9778.89C635.496 9778.91 634.523 9780.4 631.9440000000001 9781.359999999999C630.7760000000001 9779.22 629.493 9777.509999999998 629.3900000000001 9777.38C629.9060000000001 9777.25 630.445 9777.179999999998 631.0000000000001 9777.179999999998C632.7300000000001 9777.179999999998 634.3090000000001 9777.829999999998 635.5130000000001 9778.889999999998ZM637.83 9783.95C637.731 9783.93 635.4190000000001 9783.43 633.071 9783.720000000001C633.023 9783.61 632.975 9783.490000000002 632.924 9783.37C632.7819999999999 9783.04 632.629 9782.7 632.47 9782.380000000001C635.168 9781.28 636.264 9779.69 636.277 9779.68C637.235 9780.84 637.8140000000001 9782.33 637.83 9783.95ZM629.36182 9777.38001C629.3606599999999 9777.38009 629.3538 9777.380920000001 629.342 9777.390000000001C629.34836 9777.380920000001 629.3547199999999 9777.38008 629.36182 9777.38001ZM625.918 9788.58L625.916 9788.58C625.916 9788.58 625.9162600000001 9788.57954 625.91677 9788.57864C625.91718 9788.57909 625.91759 9788.57955 625.918 9788.58ZM629.36182 9777.38001C629.36194 9777.380000000001 629.362 9777.380000000001 629.362 9777.380000000001C629.362 9777.380000000001 629.3629999999999 9777.380000000001 629.3639999999999 9777.380000000001C629.3632699999999 9777.380000000001 629.36254 9777.380000000001 629.36182 9777.38001ZM634.818 9789.68C634.7479999999999 9789.27 634.384 9787.26 633.4879999999999 9784.800000000001C635.694 9784.45 637.6049999999999 9785.050000000001 637.746 9785.1C637.442 9787 636.352 9788.65 634.818 9789.68Z " fill="#95e1d3" transform="matrix(1,0,0,1,-623,-9776)"></path></svg>