<svg id="SvgjsSvg1059" xmlns="http://www.w3.org/2000/svg" version="1.1" xmlns:xlink="http://www.w3.org/1999/xlink" xmlns:svgjs="http://svgjs.com/svgjs" width="9" height="17"><defs id="SvgjsDefs1060"></defs><path id="SvgjsPath1061" d="M454.993 9776.01C454.993 9776.94 454.993 9778.59 454.993 9778.59C454.993 9778.59 453.09499999999997 9778.4 452.61899999999997 9779.130000000001C452.359 9779.53 452.51399999999995 9780.69 452.491 9781.53C453.31899999999996 9781.53 454.18 9781.53 455.00899999999996 9781.53C454.79599999999994 9782.51 454.64399999999995 9783.17 454.48699999999997 9784.01C453.77 9784.01 452.477 9784.01 452.477 9784.01L452.477 9792.02C452.477 9792.02 450.104 9792.02 448.988 9792.02C448.989 9789.550000000001 448.987 9786.67 448.988 9784.050000000001C448.446 9784.050000000001 448.045 9784.050000000001 447.504 9784.050000000001C447.504 9783.12 447.504 9782.45 447.504 9781.53C448.029 9781.53 448.446 9781.53 448.97200000000004 9781.53C449.047 9779.69 449.07500000000005 9777.86 449.99 9776.93C451.01800000000003 9775.89 451.998 9776.01 454.993 9776.01Z " fill="#95e1d3" transform="matrix(1,0,0,1,-447,-9776)"></path></svg>