<svg id="SvgjsSvg1071" xmlns="http://www.w3.org/2000/svg" version="1.1" xmlns:xlink="http://www.w3.org/1999/xlink" xmlns:svgjs="http://svgjs.com/svgjs" width="16" height="15"><defs id="SvgjsDefs1072"></defs><path id="SvgjsPath1073" d="M570.923 9778.25L571.868 9777.26C571.868 9777.26 568.7030000000001 9777.26 567.648 9777.26C565.756 9777.26 563.975 9778.76 563.975 9780.4C563.975 9782.06 565.265 9783.449999999999 567.1890000000001 9783.449999999999C567.3230000000001 9783.449999999999 567.4530000000001 9783.47 567.58 9783.46C567.456 9783.699999999999 567.3670000000001 9783.98 567.3670000000001 9784.25C567.3670000000001 9784.71 567.6200000000001 9785.09 567.941 9785.4C567.6990000000001 9785.4 567.465 9785.41 567.2090000000001 9785.41C564.8660000000001 9785.41 563.0000000000001 9786.88 563.0000000000001 9788.4C563.0000000000001 9789.9 565.0390000000001 9791.02 567.3830000000002 9791.02C570.0550000000002 9791.02 571.4990000000001 9789.34 571.4990000000001 9787.85C571.4990000000001 9786.65 571.1690000000001 9785.93 570.0550000000002 9785.15C569.6730000000002 9784.89 568.9440000000002 9784.24 568.9440000000002 9783.859999999999C568.9440000000002 9783.419999999998 569.0730000000002 9783.199999999999 569.7540000000001 9782.679999999998C570.4520000000001 9782.139999999998 570.9930000000002 9781.449999999999 570.9930000000002 9780.579999999998C570.9930000000002 9779.529999999999 570.4730000000002 9778.739999999998 569.5850000000002 9778.249999999998ZM579 9780.72L579 9779.72L576.5 9779.72L576.5 9777.279999999999L575.5 9777.279999999999L575.5 9779.72L573 9779.72L573 9780.72L575.5 9780.72L575.5 9783.16L576.5 9783.16L576.5 9780.72ZM568.705 9785.97C569.585 9786.57 570.215 9786.9 570.393 9787.59C570.427 9787.73 570.445 9787.87 570.445 9788.02C570.445 9789.23 569.6510000000001 9790.050000000001 567.374 9790.050000000001C565.755 9790.050000000001 564.585 9789.160000000002 564.585 9787.95C564.585 9786.77 566.0360000000001 9785.78 567.6560000000001 9785.800000000001C568.0340000000001 9785.800000000001 568.3860000000001 9785.86 568.705 9785.970000000001ZM567.8 9783.08C566.713 9783.05 565.68 9781.88 565.492 9780.48C565.304 9779.08 566.033 9778.01 567.12 9778.039999999999C568.207 9778.07 569.287 9779.189999999999 569.476 9780.599999999999C569.663 9781.999999999998 568.887 9783.109999999999 567.8 9783.079999999998Z " fill="#95e1d3" transform="matrix(1,0,0,1,-563,-9777)"></path></svg>