<svg id="SvgjsSvg1065" xmlns="http://www.w3.org/2000/svg" version="1.1" xmlns:xlink="http://www.w3.org/1999/xlink" xmlns:svgjs="http://svgjs.com/svgjs" width="16" height="17"><defs id="SvgjsDefs1066"></defs><path id="SvgjsPath1067" d="M517 9792.01L505 9792.01C503.895 9792.01 503 9791.12 503 9790.02L503 9778.02C503 9776.91 503.895 9776.01 505 9776.01L517 9776.01C518.105 9776.01 519 9776.91 519 9778.02L519 9790.02C519 9791.12 518.105 9792.01 517 9792.01ZM511 9780.91C509.753 9780.91 508.68 9781.65 508.189 9782.71L508.18600000000004 9782.71C508.18100000000004 9782.73 508.177 9782.74 508.172 9782.75C508.14300000000003 9782.81 508.117 9782.88 508.09200000000004 9782.95C508.08000000000004 9782.980000000001 508.06700000000006 9783.01 508.05600000000004 9783.050000000001C508.033 9783.12 508.01400000000007 9783.19 507.997 9783.26C507.988 9783.29 507.978 9783.33 507.971 9783.36C507.954 9783.44 507.943 9783.51 507.933 9783.59C507.928 9783.62 507.92199999999997 9783.65 507.918 9783.68C507.907 9783.79 507.90000000000003 9783.9 507.90000000000003 9784.01C507.90000000000003 9785.73 509.288 9787.11 511.00000000000006 9787.11C512.7120000000001 9787.11 514.1 9785.730000000001 514.1 9784.01C514.1 9783.9 514.0930000000001 9783.79 514.082 9783.68C514.078 9783.65 514.072 9783.62 514.067 9783.59C514.057 9783.51 514.045 9783.44 514.029 9783.36C514.022 9783.33 514.012 9783.29 514.003 9783.26C513.985 9783.19 513.9670000000001 9783.12 513.9440000000001 9783.050000000001C513.9330000000001 9783.01 513.9200000000001 9782.980000000001 513.9080000000001 9782.95C513.8830000000002 9782.880000000001 513.8570000000001 9782.810000000001 513.8280000000001 9782.75C513.8230000000001 9782.74 513.8190000000001 9782.73 513.8140000000001 9782.71L513.811 9782.71C513.3190000000001 9781.65 512.2470000000001 9780.91 511.00000000000006 9780.91ZM517.2 9778.62C517.2 9778.17 516.8420000000001 9777.820000000002 516.4000000000001 9777.820000000002L514.8000000000001 9777.820000000002C514.3580000000001 9777.820000000002 514.0000000000001 9778.170000000002 514.0000000000001 9778.62L514.0000000000001 9780.220000000001C514.0000000000001 9780.660000000002 514.3580000000001 9781.010000000002 514.8000000000001 9781.010000000002L516.4000000000001 9781.010000000002C516.8420000000001 9781.010000000002 517.2 9780.660000000002 517.2 9780.220000000001ZM517.2 9782.71L515.725 9782.71C515.839 9783.13 515.9 9783.56 515.9 9784.009999999998C515.9 9786.719999999998 513.706 9788.909999999998 511 9788.909999999998C508.294 9788.909999999998 506.1 9786.719999999998 506.1 9784.009999999998C506.1 9783.559999999998 506.161 9783.13 506.27500000000003 9782.71L504.8 9782.71L504.8 9789.419999999998C504.8 9789.859999999999 505.158 9790.21 505.6 9790.21L516.4 9790.21C516.842 9790.21 517.1999999999999 9789.859999999999 517.1999999999999 9789.419999999998Z " fill="#95e1d3" transform="matrix(1,0,0,1,-503,-9776)"></path></svg>