<svg id="SvgjsSvg1068" xmlns="http://www.w3.org/2000/svg" version="1.1" xmlns:xlink="http://www.w3.org/1999/xlink" xmlns:svgjs="http://svgjs.com/svgjs" width="13" height="17"><defs id="SvgjsDefs1069"></defs><path id="SvgjsPath1070" d="M539.844 9786.42C539.7130000000001 9786.94 539.5820000000001 9787.49 539.446 9788.02C539.311 9788.550000000001 539.193 9789.08 538.9970000000001 9789.57C538.6730000000001 9790.369999999999 538.2600000000001 9791.14 537.72 9791.77C537.361 9792.19 537.437 9792.02 537.3290000000001 9792C537.2460000000001 9791.98 537.239 9791.9 537.2230000000001 9791.78C537.1350000000001 9791.140000000001 537.195 9790.41 537.2280000000001 9789.69C537.2650000000001 9788.880000000001 537.436 9788.2 537.595 9787.52C537.898 9786.23 538.187 9784.970000000001 538.4920000000001 9783.67C538.513 9783.59 538.5670000000001 9783.44 538.5490000000001 9783.39C538.4100000000001 9783.029999999999 538.32 9782.71 538.2810000000001 9782.33C538.235 9781.9 538.2700000000001 9781.49 538.368 9781.12C538.5400000000001 9780.460000000001 538.9380000000001 9779.87 539.552 9779.660000000002C539.941 9779.520000000002 540.373 9779.580000000002 540.635 9779.740000000002C540.906 9779.900000000001 541.091 9780.150000000001 541.177 9780.520000000002C541.27 9780.900000000001 541.202 9781.360000000002 541.128 9781.700000000003C540.961 9782.460000000003 540.7410000000001 9783.030000000002 540.542 9783.770000000002C540.443 9784.130000000003 540.331 9784.510000000002 540.424 9784.900000000001C540.509 9785.260000000002 540.697 9785.510000000002 540.953 9785.7C541.2189999999999 9785.890000000001 541.534 9786 541.9689999999999 9785.980000000001C542.736 9785.95 543.2689999999999 9785.460000000001 543.626 9785.000000000002C544.196 9784.260000000002 544.5409999999999 9783.260000000002 544.673 9782.070000000002C544.715 9781.690000000002 544.746 9781.250000000002 544.716 9780.810000000001C544.662 9780.010000000002 544.41 9779.37 544.0120000000001 9778.86C543.633 9778.390000000001 543.096 9778.01 542.442 9777.800000000001C541.794 9777.580000000002 540.897 9777.51 540.1 9777.650000000001C538.652 9777.900000000001 537.63 9778.720000000001 537.028 9779.86C536.713 9780.45 536.505 9781.140000000001 536.505 9781.99C536.505 9782.65 536.667 9783.16 536.929 9783.55C537.012 9783.679999999998 537.134 9783.779999999999 537.2149999999999 9783.929999999998C537.3309999999999 9784.13 537.1969999999999 9784.429999999998 537.1399999999999 9784.649999999998C537.0719999999999 9784.919999999998 537.0639999999999 9785.289999999997 536.7539999999999 9785.289999999997C536.6259999999999 9785.289999999997 536.4639999999999 9785.199999999997 536.3559999999999 9785.139999999998C535.5399999999998 9784.689999999997 535.0449999999998 9783.869999999997 534.8419999999999 9782.809999999998C534.7179999999998 9782.159999999998 534.7189999999998 9781.409999999998 534.8419999999999 9780.779999999997C534.9609999999999 9780.179999999997 535.1819999999999 9779.619999999997 535.4269999999999 9779.169999999996C535.9359999999999 9778.229999999996 536.6819999999999 9777.479999999996 537.5889999999999 9776.939999999997C538.2869999999999 9776.529999999997 539.074 9776.239999999996 540.031 9776.099999999997C540.3489999999999 9776.049999999997 540.678 9776.039999999997 541.034 9776.019999999997C542.077 9775.969999999998 543.025 9776.209999999997 543.7379999999999 9776.519999999997C544.491 9776.859999999997 545.092 9777.309999999998 545.601 9777.869999999997C546.124 9778.439999999997 546.505 9779.099999999997 546.747 9779.929999999997C546.8729999999999 9780.369999999997 546.996 9780.829999999996 546.996 9781.359999999997C546.996 9781.899999999998 546.882 9782.369999999997 546.803 9782.839999999997C546.507 9784.609999999997 545.666 9786.059999999996 544.405 9786.879999999997C544.0989999999999 9787.079999999998 543.728 9787.259999999997 543.308 9787.389999999998C542.891 9787.509999999998 542.4159999999999 9787.599999999997 541.906 9787.559999999998C541.4119999999999 9787.529999999997 541.007 9787.389999999998 540.6669999999999 9787.199999999997C540.329 9787.009999999997 540.045 9786.779999999997 539.8439999999999 9786.419999999996Z " fill="#95e1d3" transform="matrix(1,0,0,1,-534,-9776)"></path></svg>