<svg id="SvgjsSvg1080" xmlns="http://www.w3.org/2000/svg" version="1.1" xmlns:xlink="http://www.w3.org/1999/xlink" xmlns:svgjs="http://svgjs.com/svgjs" width="11" height="17"><defs id="SvgjsDefs1081"></defs><path id="SvgjsPath1082" d="M666.009 9791.15C665.3290000000001 9791.47 664.712 9791.69 664.16 9791.82C663.608 9791.949999999999 663.012 9792.02 662.371 9792.02C661.6419999999999 9792.02 661.213 9791.93 660.653 9791.74C660.094 9791.56 659.6170000000001 9791.289999999999 659.222 9790.949999999999C658.826 9790.609999999999 658.553 9790.24 658.399 9789.859999999999C658.247 9789.47 658.171 9788.919999999998 658.171 9788.179999999998L658.171 9782.569999999998L656.0070000000001 9782.569999999998L656.0070000000001 9780.299999999997C656.633 9780.099999999997 657.3580000000001 9779.799999999997 657.8030000000001 9779.419999999998C658.2510000000001 9779.039999999999 658.6080000000001 9778.579999999998 658.8780000000002 9778.049999999997C659.1480000000001 9777.509999999997 659.3350000000002 9776.829999999998 659.4360000000001 9776.009999999997L661.7010000000001 9776.009999999997L661.7010000000001 9779.709999999997L665.3830000000002 9779.709999999997L665.3830000000002 9782.569999999998L661.7010000000001 9782.569999999998L661.7010000000001 9786.669999999998C661.7010000000001 9787.599999999999 661.6890000000002 9788.139999999998 661.7870000000001 9788.399999999998C661.8840000000001 9788.659999999998 662.1280000000002 9788.929999999998 662.3940000000001 9789.089999999998C662.7470000000001 9789.299999999997 663.1490000000001 9789.409999999998 663.6030000000001 9789.409999999998C664.4090000000001 9789.409999999998 665.211 9789.149999999998 666.009 9788.619999999997Z " fill="#95e1d3" transform="matrix(1,0,0,1,-656,-9776)"></path></svg>