<svg id="SvgjsSvg1023" xmlns="http://www.w3.org/2000/svg" version="1.1" xmlns:xlink="http://www.w3.org/1999/xlink" xmlns:svgjs="http://svgjs.com/svgjs" width="32" height="28"><defs id="SvgjsDefs1024"></defs><path id="SvgjsPath1025" d="M1220 2333L1210.5 2333L1210.5 2335.5L1212.5 2337.5L1212.5 2338L1199.5 2338L1199.5 2337.5L1201.5 2335.5L1201.5 2333L1192 2333C1191.17 2333 1190.5 2332.33 1190.5 2331.5L1190.5 2311.5C1190.5 2310.67 1191.17 2310 1192 2310L1220 2310C1220.83 2310 1221.5 2310.67 1221.5 2311.5L1221.5 2331.5C1221.5 2332.33 1220.83 2333 1220 2333ZM1219.5 2312L1192.5 2312L1192.5 2329L1219.5 2329ZM1201.5 2320.5C1201.5 2320.91 1201.67 2321.29 1201.94 2321.56L1203.94 2323.56C1204.21 2323.83 1204.5900000000001 2324 1205 2324C1205.41 2324 1205.79 2323.83 1206.06 2323.56L1210.06 2319.56C1210.33 2319.29 1210.5 2318.91 1210.5 2318.5C1210.5 2317.67 1209.83 2317 1209 2317C1208.59 2317 1208.21 2317.17 1207.94 2317.44L1205 2320.38L1204.06 2319.44C1203.79 2319.17 1203.4099999999999 2319 1203 2319C1202.17 2319 1201.5 2319.67 1201.5 2320.5Z " fill="#95e1d3" transform="matrix(1,0,0,1,-1190,-2310)"></path></svg>