<svg id="SvgjsSvg1020" xmlns="http://www.w3.org/2000/svg" version="1.1" xmlns:xlink="http://www.w3.org/1999/xlink" xmlns:svgjs="http://svgjs.com/svgjs" width="32" height="31"><defs id="SvgjsDefs1021"></defs><path id="SvgjsPath1022" d="M806 2485L793 2498L793 2508.5C793 2509.33 793.672 2510 794.5 2510L808.5 2510L808.5 2498L814.5 2498L814.5 2510L817.5 2510C818.328 2510 819 2509.33 819 2508.5L819 2498ZM822 2495.5C822 2496.33 821.328 2497 820.5 2497C820.105 2497 819.748 2496.84 819.48 2496.59L819.477 2496.6000000000004L806.038 2483.1600000000003L806 2483.1200000000003L792.554 2496.57L792.553 2496.57C792.282 2496.8300000000004 791.91 2497 791.5 2497C790.672 2497 790 2496.33 790 2495.5C790 2495.07 790.177 2494.69 790.461 2494.42L804.919 2479.96C805.192 2479.68 805.5749999999999 2479.5 806 2479.5C806 2479.5 806 2479.5 806.001 2479.5C806.0269999999999 2479.5 806.053 2479.5 806.0799999999999 2479.5C806.084 2479.5 806.088 2479.5 806.0919999999999 2479.5C806.1149999999999 2479.5 806.1369999999998 2479.51 806.1599999999999 2479.51C806.1609999999998 2479.51 806.1619999999998 2479.51 806.1639999999999 2479.51C806.5309999999998 2479.55 806.8579999999998 2479.7200000000003 807.0969999999999 2479.98L807.0979999999998 2479.98L812.9999999999999 2485.88L812.9999999999999 2484.5C812.9999999999999 2483.67 813.6709999999999 2483 814.4999999999999 2483C815.3279999999999 2483 815.9999999999999 2483.67 815.9999999999999 2484.5L815.9999999999999 2488.88L821.5979999999998 2494.48L821.5939999999998 2494.48C821.8439999999998 2494.75 821.9999999999998 2495.1 821.9999999999998 2495.5ZM803.5 2504L797.5 2504L797.5 2498L803.5 2498Z " fill="#95e1d3" transform="matrix(1,0,0,1,-790,-2479)"></path></svg>