<svg id="SvgjsSvg1017" xmlns="http://www.w3.org/2000/svg" version="1.1" xmlns:xlink="http://www.w3.org/1999/xlink" xmlns:svgjs="http://svgjs.com/svgjs" width="32" height="32"><defs id="SvgjsDefs1018"></defs><path id="SvgjsPath1019" d="M821.5 2341L792.5 2341C791.672 2341 791 2340.33 791 2339.5L791 2310.5C791 2309.67 791.672 2309 792.5 2309L821.5 2309C822.328 2309 823 2309.67 823 2310.5L823 2339.5C823 2340.33 822.328 2341 821.5 2341ZM820 2312L794 2312L794 2338L820 2338ZM795.5 2326.52C795.5 2327.35 796.172 2328.02 797 2328.02C797.314 2328.02 797.606 2327.92 797.847 2327.7599999999998L800.982 2325.7999999999997L807.639 2330.2299999999996C807.8820000000001 2330.3999999999996 808.179 2330.5099999999998 808.5 2330.5099999999998C808.828 2330.5099999999998 809.132 2330.3999999999996 809.378 2330.22L809.379 2330.22L817.879 2324.22L817.878 2324.22C818.255 2323.95 818.5 2323.5099999999998 818.5 2323.0099999999998C818.5 2322.18 817.828 2321.5099999999998 817 2321.5099999999998C816.669 2321.5099999999998 816.363 2321.6099999999997 816.115 2321.79L808.477 2327.19L801.846 2322.77L801.84 2322.77C801.6 2322.61 801.311 2322.52 801 2322.52C800.712 2322.52 800.444 2322.6 800.215 2322.74L796.215 2325.24C795.7860000000001 2325.5 795.5 2325.9799999999996 795.5 2326.52Z " fill="#95e1d3" transform="matrix(1,0,0,1,-791,-2309)"></path></svg>