<svg id="SvgjsSvg1026" xmlns="http://www.w3.org/2000/svg" version="1.1" xmlns:xlink="http://www.w3.org/1999/xlink" xmlns:svgjs="http://svgjs.com/svgjs" width="32" height="32"><defs id="SvgjsDefs1027"></defs><path id="SvgjsPath1028" d="M1220.5 2511L1191.5 2511C1190.67 2511 1190 2510.33 1190 2509.5L1190 2480.5C1190 2479.67 1190.67 2479 1191.5 2479L1220.5 2479C1221.33 2479 1222 2479.67 1222 2480.5L1222 2509.5C1222 2510.33 1221.33 2511 1220.5 2511ZM1219 2482L1193 2482L1193 2508L1219 2508ZM1202 2483.5C1202.83 2483.5 1203.5 2484.17 1203.5 2485C1203.5 2485.83 1202.83 2486.5 1202 2486.5L1197.5 2486.5L1197.5 2491C1197.5 2491.83 1196.83 2492.5 1196 2492.5C1195.17 2492.5 1194.5 2491.83 1194.5 2491L1194.5 2483.5ZM1194.5 2499C1194.5 2498.17 1195.17 2497.5 1196 2497.5C1196.83 2497.5 1197.5 2498.17 1197.5 2499L1197.5 2503.5L1202 2503.5C1202.83 2503.5 1203.5 2504.17 1203.5 2505C1203.5 2505.83 1202.83 2506.5 1202 2506.5L1194.5 2506.5ZM1210 2483.5L1217.5 2483.5L1217.5 2491C1217.5 2491.83 1216.83 2492.5 1216 2492.5C1215.17 2492.5 1214.5 2491.83 1214.5 2491L1214.5 2486.5L1210 2486.5C1209.17 2486.5 1208.5 2485.83 1208.5 2485C1208.5 2484.17 1209.17 2483.5 1210 2483.5ZM1208.5 2505C1208.5 2505.83 1209.17 2506.5 1210 2506.5L1217.5 2506.5L1217.5 2499C1217.5 2498.17 1216.83 2497.5 1216 2497.5C1215.17 2497.5 1214.5 2498.17 1214.5 2499L1214.5 2503.5L1210 2503.5C1209.17 2503.5 1208.5 2504.17 1208.5 2505Z " fill="#95e1d3" transform="matrix(1,0,0,1,-1190,-2479)"></path></svg>