<svg id="SvgjsSvg1011" xmlns="http://www.w3.org/2000/svg" version="1.1" xmlns:xlink="http://www.w3.org/1999/xlink" xmlns:svgjs="http://svgjs.com/svgjs" width="32" height="31"><defs id="SvgjsDefs1012"></defs><path id="SvgjsPath1013" d="M406 2311.5C397.992 2311.5 391.5 2317.99 391.5 2326C391.5 2329.85 393.008 2333.33 395.451 2335.93L393.439 2337.94C393.168 2338.21 393 2338.59 393 2339C393 2339.83 393.672 2340.5 394.5 2340.5C394.914 2340.5 395.289 2340.33 395.561 2340.06L397.724 2337.9C400.072 2339.53 402.921 2340.5 406 2340.5C409.085 2340.5 411.939 2339.53 414.29 2337.89L416.468 2340.0699999999997C416.736 2340.33 417.107 2340.4999999999995 417.517 2340.4999999999995C418.336 2340.4999999999995 419 2339.8399999999997 419 2339.0199999999995C419 2338.6099999999997 418.834 2338.2399999999993 418.566 2337.9699999999993L416.537 2335.939999999999C418.988 2333.3399999999992 420.5 2329.849999999999 420.5 2325.999999999999C420.5 2317.989999999999 414.008 2311.499999999999 406 2311.499999999999ZM417.5 2326C417.5 2332.35 412.351 2337.5 406 2337.5C399.649 2337.5 394.5 2332.35 394.5 2326C394.5 2319.65 399.649 2314.5 406 2314.5C412.351 2314.5 417.5 2319.65 417.5 2326ZM413.5 2326C413.5 2325.17 412.828 2324.5 412 2324.5L407.5 2324.5L407.5 2318C407.5 2317.17 406.828 2316.5 406 2316.5C405.172 2316.5 404.5 2317.17 404.5 2318L404.5 2326C404.5 2326.83 405.172 2327.5 406 2327.5L412 2327.5C412.828 2327.5 413.5 2326.83 413.5 2326ZM422 2315.87C422 2312.63 419.37 2310 416.126 2310C414.755 2310 413.49699999999996 2310.47 412.49699999999996 2311.26C416.193 2312.84 419.15599999999995 2315.8100000000004 420.73999999999995 2319.5C421.52699999999993 2318.5 421.99999999999994 2317.25 421.99999999999994 2315.87ZM391.287 2319.71C390.483 2318.69 390 2317.4 390 2316C390 2312.69 392.686 2310 396 2310C397.4 2310 398.685 2310.48 399.706 2311.29C395.93100000000004 2312.9 392.904 2315.93 391.28700000000003 2319.71Z " fill="#95e1d3" transform="matrix(1,0,0,1,-390,-2310)"></path></svg>