<svg id="SvgjsSvg1014" xmlns="http://www.w3.org/2000/svg" version="1.1" xmlns:xlink="http://www.w3.org/1999/xlink" xmlns:svgjs="http://svgjs.com/svgjs" width="32" height="32"><defs id="SvgjsDefs1015"></defs><path id="SvgjsPath1016" d="M422.065 2504.89L407.594 2510.8799999999997C407.412 2510.9599999999996 407.211 2510.9999999999995 407 2510.9999999999995C406.789 2510.9999999999995 406.588 2510.9599999999996 406.406 2510.8799999999997L391.935 2504.89C391.387 2504.67 391 2504.1299999999997 391 2503.5L391 2480.5C391 2479.67 391.672 2479 392.5 2479C392.703 2479 392.897 2479.04 393.073 2479.11L393.07399999999996 2479.11L393.07599999999996 2479.1200000000003C393.08 2479.1200000000003 393.085 2479.1200000000003 393.08899999999994 2479.1200000000003L406.99999999999994 2484.8800000000006L420.91099999999994 2479.1200000000003C420.91499999999996 2479.1200000000003 420.91999999999996 2479.1200000000003 420.9239999999999 2479.1200000000003L420.9269999999999 2479.11C421.1029999999999 2479.04 421.2969999999999 2479 421.4999999999999 2479C422.32799999999986 2479 422.9999999999999 2479.67 422.9999999999999 2480.5L422.9999999999999 2503.5C422.9999999999999 2504.13 422.6129999999999 2504.67 422.0649999999999 2504.89ZM405.5 2487.5L394 2482.74L394 2502.5L405.5 2507.26ZM420 2482.74L408.5 2487.5L408.5 2507.26L420 2502.5ZM410.879 2489.63L416.379 2487.13C416.56800000000004 2487.05 416.778 2487 417 2487C417.828 2487 418.5 2487.67 418.5 2488.5C418.5 2489.11 418.139 2489.63 417.621 2489.87L412.121 2492.37C411.931 2492.45 411.721 2492.5 411.5 2492.5C410.672 2492.5 410 2491.83 410 2491C410 2490.39 410.361 2489.87 410.879 2489.63ZM410.879 2495.13L416.379 2492.63C416.56800000000004 2492.55 416.778 2492.5 417 2492.5C417.828 2492.5 418.5 2493.17 418.5 2494C418.5 2494.61 418.139 2495.13 417.621 2495.37L412.121 2497.87L412.121 2497.8599999999997C411.931 2497.95 411.721 2497.9999999999995 411.5 2497.9999999999995C410.672 2497.9999999999995 410 2497.3299999999995 410 2496.4999999999995C410 2495.8899999999994 410.361 2495.3699999999994 410.879 2495.1299999999997ZM410.879 2500.63L416.379 2498.13C416.56800000000004 2498.05 416.778 2498 417 2498C417.828 2498 418.5 2498.67 418.5 2499.5C418.5 2500.11 418.139 2500.63 417.621 2500.87L412.121 2503.37C411.931 2503.45 411.721 2503.5 411.5 2503.5C410.672 2503.5 410 2502.83 410 2502C410 2501.39 410.361 2500.87 410.879 2500.63ZM397 2487C397.221 2487 397.431 2487.05 397.621 2487.13L403.121 2489.63C403.63899999999995 2489.87 404 2490.3900000000003 404 2491C404 2491.83 403.328 2492.5 402.5 2492.5C402.278 2492.5 402.068 2492.45 401.879 2492.37L396.379 2489.87C395.86100000000005 2489.63 395.5 2489.1099999999997 395.5 2488.5C395.5 2487.67 396.172 2487 397 2487ZM397 2492.5C397.221 2492.5 397.431 2492.55 397.621 2492.63L403.121 2495.13C403.63899999999995 2495.37 404 2495.8900000000003 404 2496.5C404 2497.33 403.328 2498 402.5 2498C402.278 2498 402.068 2497.95 401.879 2497.86L401.879 2497.8700000000003L396.379 2495.3700000000003C395.86100000000005 2495.1300000000006 395.5 2494.61 395.5 2494.0000000000005C395.5 2493.1700000000005 396.172 2492.5000000000005 397 2492.5000000000005ZM395.5 2499.5C395.5 2500.11 395.861 2500.63 396.379 2500.87L401.879 2503.37C402.06800000000004 2503.45 402.278 2503.5 402.5 2503.5C403.328 2503.5 404 2502.83 404 2502C404 2501.39 403.639 2500.87 403.121 2500.63L397.621 2498.13C397.431 2498.05 397.221 2498 397 2498C396.172 2498 395.5 2498.67 395.5 2499.5Z " fill="#95e1d3" transform="matrix(1,0,0,1,-391,-2479)"></path></svg>