<svg id="SvgjsSvg1014" xmlns="http://www.w3.org/2000/svg" version="1.1" xmlns:xlink="http://www.w3.org/1999/xlink" xmlns:svgjs="http://svgjs.com/svgjs" width="13" height="26"><defs id="SvgjsDefs1015"></defs><path id="SvgjsPath1016" d="M463.089 5312.2C463.089 5313.679999999999 463.089 5316.32 463.089 5316.32C463.089 5316.32 460.052 5316.0199999999995 459.291 5317.179999999999C458.875 5317.82 459.122 5319.679999999999 459.085 5321.0199999999995C460.411 5321.0199999999995 461.78799999999995 5321.0199999999995 463.114 5321.0199999999995C462.774 5322.58 462.53 5323.639999999999 462.279 5324.999999999999C461.132 5324.999999999999 459.063 5324.999999999999 459.063 5324.999999999999L459.063 5337.799999999999C459.063 5337.799999999999 455.26599999999996 5337.799999999999 453.481 5337.799999999999C453.48199999999997 5333.849999999999 453.48 5329.249999999999 453.481 5325.049999999999C452.614 5325.049999999999 451.973 5325.049999999999 451.106 5325.049999999999C451.106 5323.57 451.106 5322.499999999999 451.106 5321.0199999999995C451.947 5321.0199999999995 452.613 5321.0199999999995 453.455 5321.0199999999995C453.575 5318.07 453.62 5315.15 455.084 5313.669999999999C456.728 5311.999999999999 458.297 5312.199999999999 463.089 5312.199999999999Z " fill="#f38181" transform="matrix(1,0,0,1,-451,-5312)"></path></svg>
