<svg id="SvgjsSvg1000" xmlns="http://www.w3.org/2000/svg" version="1.1" xmlns:xlink="http://www.w3.org/1999/xlink" xmlns:svgjs="http://svgjs.com/svgjs" width="26" height="26"><defs id="SvgjsDefs1001"></defs><path id="SvgjsPath1007" d="M632.7 5337.8L613.5 5337.8C611.733 5337.8 610.3 5336.37 610.3 5334.6L610.3 5315.400000000001C610.3 5313.63 611.733 5312.200000000001 613.5 5312.200000000001L632.7 5312.200000000001C634.4670000000001 5312.200000000001 635.9000000000001 5313.630000000001 635.9000000000001 5315.400000000001L635.9000000000001 5334.6C635.9000000000001 5336.370000000001 634.4670000000001 5337.8 632.7 5337.8ZM623.1 5320.04C621.104 5320.04 619.389 5321.22 618.602 5322.92L618.597 5322.92C618.5889999999999 5322.9400000000005 618.583 5322.96 618.5749999999999 5322.97C618.5279999999999 5323.08 618.487 5323.1900000000005 618.4469999999999 5323.3C618.4279999999999 5323.35 618.4069999999999 5323.400000000001 618.3899999999999 5323.45C618.3529999999998 5323.5599999999995 618.3229999999999 5323.679999999999 618.2949999999998 5323.79C618.2809999999998 5323.84 618.2649999999999 5323.9 618.2529999999998 5323.95C618.2269999999999 5324.07 618.2089999999998 5324.2 618.1919999999998 5324.32C618.1849999999998 5324.37 618.1749999999997 5324.42 618.1689999999998 5324.469999999999C618.1509999999997 5324.639999999999 618.1399999999998 5324.82 618.1399999999998 5324.999999999999C618.1399999999998 5327.739999999999 620.3609999999998 5329.959999999999 623.0999999999998 5329.959999999999C625.8389999999998 5329.959999999999 628.0599999999998 5327.739999999999 628.0599999999998 5324.999999999999C628.0599999999998 5324.819999999999 628.0489999999999 5324.639999999999 628.0309999999998 5324.469999999999C628.0249999999999 5324.419999999999 628.0149999999999 5324.369999999999 628.0079999999998 5324.32C627.9909999999998 5324.2 627.9729999999998 5324.07 627.9469999999998 5323.95C627.9349999999998 5323.9 627.9189999999998 5323.84 627.9049999999997 5323.79C627.8769999999997 5323.68 627.8469999999998 5323.56 627.8099999999997 5323.45C627.7929999999997 5323.4 627.7719999999997 5323.349999999999 627.7529999999997 5323.3C627.7129999999997 5323.1900000000005 627.6719999999997 5323.08 627.6249999999997 5322.97C627.6169999999996 5322.96 627.6109999999996 5322.9400000000005 627.6029999999996 5322.92L627.5979999999996 5322.92C626.8109999999996 5321.22 625.0959999999997 5320.04 623.0999999999996 5320.04ZM633.02 5316.36C633.02 5315.65 632.447 5315.08 631.74 5315.08L629.1800000000001 5315.08C628.4730000000001 5315.08 627.9000000000001 5315.65 627.9000000000001 5316.36L627.9000000000001 5318.92C627.9000000000001 5319.63 628.4730000000001 5320.2 629.1800000000001 5320.2L631.74 5320.2C632.447 5320.2 633.02 5319.63 633.02 5318.92ZM633.02 5322.92L630.66 5322.92C630.842 5323.58 630.9399999999999 5324.28 630.9399999999999 5325C630.9399999999999 5329.33 627.43 5332.84 623.0999999999999 5332.84C618.7699999999999 5332.84 615.2599999999999 5329.33 615.2599999999999 5325C615.2599999999999 5324.28 615.3579999999998 5323.58 615.5399999999998 5322.92L613.1799999999998 5322.92L613.1799999999998 5333.64C613.1799999999998 5334.35 613.7529999999998 5334.92 614.4599999999998 5334.92L631.7399999999998 5334.92C632.4469999999998 5334.92 633.0199999999998 5334.35 633.0199999999998 5333.64Z " fill="#f38181" transform="matrix(1,0,0,1,-610,-5312)"></path></svg>
