<svg id="SvgjsSvg1008" xmlns="http://www.w3.org/2000/svg" version="1.1" xmlns:xlink="http://www.w3.org/1999/xlink" xmlns:svgjs="http://svgjs.com/svgjs" width="21" height="26"><defs id="SvgjsDefs1009"></defs><path id="SvgjsPath1010" d="M566.051 5328.85C565.8420000000001 5329.6900000000005 565.6310000000001 5330.56 565.413 5331.410000000001C565.198 5332.260000000001 565.008 5333.110000000001 564.695 5333.880000000001C564.176 5335.170000000001 563.517 5336.4000000000015 562.652 5337.410000000001C562.077 5338.070000000001 562.1990000000001 5337.81 562.0260000000001 5337.77C561.8940000000001 5337.740000000001 561.883 5337.610000000001 561.8570000000001 5337.43C561.7160000000001 5336.41 561.8120000000001 5335.2300000000005 561.864 5334.09C561.924 5332.78 562.198 5331.7 562.4530000000001 5330.62C562.9370000000001 5328.55 563.3990000000001 5326.53 563.888 5324.45C563.9200000000001 5324.3099999999995 564.008 5324.08 563.9780000000001 5324.01C563.7560000000001 5323.43 563.6120000000001 5322.91 563.5490000000001 5322.31C563.4760000000001 5321.610000000001 563.532 5320.96 563.6880000000001 5320.360000000001C563.9650000000001 5319.3 564.6010000000001 5318.370000000001 565.5820000000001 5318.02C566.2060000000001 5317.81 566.8970000000002 5317.910000000001 567.3170000000001 5318.160000000001C567.7490000000001 5318.410000000001 568.0460000000002 5318.820000000001 568.1840000000001 5319.400000000001C568.3320000000001 5320.02 568.2230000000001 5320.750000000001 568.104 5321.290000000001C567.837 5322.510000000001 567.486 5323.430000000001 567.167 5324.600000000001C567.009 5325.190000000001 566.83 5325.790000000001 566.9780000000001 5326.410000000002C567.114 5326.990000000002 567.4150000000001 5327.390000000001 567.825 5327.690000000001C568.2510000000001 5328.000000000002 568.755 5328.170000000001 569.45 5328.1500000000015C570.678 5328.100000000001 571.5310000000001 5327.3200000000015 572.101 5326.580000000002C573.014 5325.390000000002 573.566 5323.790000000002 573.776 5321.890000000002C573.843 5321.2800000000025 573.8929999999999 5320.570000000002 573.846 5319.880000000002C573.758 5318.590000000002 573.357 5317.560000000002 572.719 5316.760000000002C572.113 5316.000000000002 571.253 5315.390000000002 570.2070000000001 5315.050000000002C569.1700000000001 5314.710000000002 567.7350000000001 5314.600000000002 566.4600000000002 5314.820000000002C564.1420000000002 5315.210000000003 562.5080000000002 5316.5300000000025 561.5450000000002 5318.350000000002C561.0410000000002 5319.300000000002 560.7080000000002 5320.400000000002 560.7080000000002 5321.760000000002C560.7080000000002 5322.810000000002 560.9670000000002 5323.620000000002 561.3860000000002 5324.260000000002C561.5190000000002 5324.460000000002 561.7140000000002 5324.630000000002 561.8440000000002 5324.860000000002C562.0290000000001 5325.180000000002 561.8160000000001 5325.670000000003 561.7250000000001 5326.020000000002C561.6150000000001 5326.450000000003 561.6030000000002 5327.0300000000025 561.1070000000001 5327.040000000003C560.9010000000001 5327.050000000003 560.643 5326.900000000002 560.469 5326.800000000003C559.1640000000001 5326.080000000003 558.3720000000001 5324.770000000003 558.047 5323.060000000003C557.849 5322.030000000003 557.85 5320.830000000004 558.047 5319.830000000004C558.2370000000001 5318.860000000003 558.591 5317.970000000004 558.984 5317.250000000004C559.798 5315.740000000003 560.991 5314.540000000004 562.443 5313.680000000004C563.559 5313.020000000004 564.818 5312.560000000004 566.35 5312.340000000004C566.8580000000001 5312.260000000004 567.384 5312.230000000004 567.955 5312.210000000004C569.623 5312.130000000004 571.139 5312.500000000004 572.2810000000001 5313.010000000004C573.4860000000001 5313.550000000004 574.4480000000001 5314.270000000004 575.2610000000001 5315.1600000000035C576.099 5316.080000000004 576.7090000000001 5317.140000000003 577.095 5318.470000000004C577.297 5319.1600000000035 577.493 5319.900000000004 577.493 5320.760000000004C577.493 5321.610000000004 577.312 5322.3700000000035 577.1850000000001 5323.130000000004C576.711 5325.9500000000035 575.3660000000001 5328.270000000004 573.3470000000001 5329.580000000004C572.8580000000001 5329.900000000003 572.2660000000001 5330.2000000000035 571.5930000000001 5330.390000000004C570.926 5330.590000000004 570.1650000000001 5330.730000000004 569.35 5330.680000000004C568.559 5330.6200000000035 567.9110000000001 5330.4100000000035 567.3670000000001 5330.100000000004C566.8270000000001 5329.790000000004 566.373 5329.420000000004 566.051 5328.850000000004Z " fill="#f38181" transform="matrix(1,0,0,1,-557,-5312)"></path></svg>