<svg id="SvgjsSvg1011" xmlns="http://www.w3.org/2000/svg" version="1.1" xmlns:xlink="http://www.w3.org/1999/xlink" xmlns:svgjs="http://svgjs.com/svgjs" width="26" height="22"><defs id="SvgjsDefs1012"></defs><path id="SvgjsPath1013" d="M516.513 5314.6C518.547 5314.56 519.63 5315.31 520.664 5316.25C521.542 5316.17 522.683 5315.68 523.355 5315.34C523.572 5315.22 523.79 5315.1 524.008 5314.9800000000005C523.624 5316.02 523.104 5316.830000000001 522.3040000000001 5317.450000000001C522.1260000000001 5317.590000000001 521.95 5317.77 521.7270000000001 5317.860000000001L521.7270000000001 5317.870000000001C522.8670000000001 5317.860000000001 523.8070000000001 5317.35 524.7 5317.070000000001C524.7 5317.070000000001 524.7 5317.070000000001 524.7 5317.080000000001C524.231 5317.820000000001 523.596 5318.580000000001 522.9190000000001 5319.120000000001C522.6460000000001 5319.340000000001 522.3720000000001 5319.56 522.099 5319.77C522.114 5320.9800000000005 522.081 5322.13 521.856 5323.150000000001C520.544 5329.040000000001 517.068 5333.040000000001 511.567 5334.76C509.591 5335.37 506.399 5335.63 504.135 5335.070000000001C503.013 5334.790000000001 501.99899999999997 5334.47 501.048 5334.06C500.519 5333.830000000001 500.029 5333.580000000001 499.561 5333.29C499.407 5333.2 499.25399999999996 5333.1 499.09999999999997 5333.01C499.60999999999996 5333.02 500.20799999999997 5333.16 500.77799999999996 5333.070000000001C501.29499999999996 5332.990000000001 501.801 5333.01 502.27799999999996 5332.910000000001C503.46599999999995 5332.650000000001 504.52099999999996 5332.300000000001 505.429 5331.77C505.86999999999995 5331.51 506.539 5331.21 506.852 5330.84C506.262 5330.85 505.727 5330.71 505.289 5330.56C503.59 5329.96 502.601 5328.85 501.957 5327.200000000001C502.472 5327.250000000001 503.955 5327.39 504.302 5327.090000000001C503.654 5327.060000000001 503.031 5326.680000000001 502.58500000000004 5326.4000000000015C501.218 5325.550000000001 500.10400000000004 5324.120000000002 500.112 5321.910000000002C500.29200000000003 5321.990000000002 500.471 5322.080000000002 500.65000000000003 5322.160000000002C500.994 5322.310000000001 501.343 5322.390000000001 501.752 5322.470000000002C501.925 5322.510000000002 502.271 5322.610000000002 502.47 5322.5300000000025C502.461 5322.5300000000025 502.45300000000003 5322.5300000000025 502.444 5322.5300000000025C502.18 5322.230000000002 501.749 5322.020000000002 501.483 5321.690000000002C500.606 5320.600000000002 499.785 5318.920000000002 500.30400000000003 5316.930000000002C500.43600000000004 5316.420000000002 500.64500000000004 5315.970000000002 500.86800000000005 5315.560000000002C500.87700000000007 5315.560000000002 500.88500000000005 5315.570000000002 500.89400000000006 5315.570000000002C500.99600000000004 5315.790000000003 501.22400000000005 5315.940000000002 501.36800000000005 5316.120000000003C501.81600000000003 5316.680000000003 502.36800000000005 5317.180000000003 502.93100000000004 5317.620000000003C504.84900000000005 5319.120000000003 506.576 5320.040000000003 509.35 5320.720000000003C510.05400000000003 5320.890000000003 510.867 5321.030000000003 511.708 5321.030000000003C511.47200000000004 5320.340000000004 511.548 5319.230000000003 511.733 5318.560000000003C512.201 5316.890000000003 513.216 5315.680000000003 514.706 5315.040000000003C515.062 5314.880000000003 515.457 5314.770000000002 515.8720000000001 5314.680000000003C516.0860000000001 5314.650000000003 516.2990000000001 5314.630000000003 516.513 5314.600000000003Z " fill="#f38181" transform="matrix(1,0,0,1,-499,-5314)"></path></svg>