<svg id="SvgjsSvg1056" xmlns="http://www.w3.org/2000/svg" version="1.1" xmlns:xlink="http://www.w3.org/1999/xlink" xmlns:svgjs="http://svgjs.com/svgjs" width="20" height="26"><defs id="SvgjsDefs1057"></defs><path id="SvgjsPath1058" d="M960 9322.8C960 9322.8 950.4 9312.099999999999 950.4 9306.8C950.4 9301.5 954.698 9297.199999999999 960 9297.199999999999C965.302 9297.199999999999 969.6 9301.499999999998 969.6 9306.8C969.6 9312.099999999999 960 9322.8 960 9322.8ZM960 9300.4C956.466 9300.4 953.6 9303.27 953.6 9306.8C953.6 9310.33 956.466 9313.199999999999 960 9313.199999999999C963.534 9313.199999999999 966.4 9310.329999999998 966.4 9306.8C966.4 9303.269999999999 963.534 9300.4 960 9300.4ZM963.2 9306.8C963.2 9305.029999999999 961.767 9303.599999999999 960 9303.599999999999C958.233 9303.599999999999 956.8 9305.029999999999 956.8 9306.8C956.8 9308.57 958.233 9310 960 9310C961.767 9310 963.2 9308.57 963.2 9306.8Z " fill="#f38181" transform="matrix(1,0,0,1,-950,-9297)"></path></svg>